Coordinates
version=1
nRows=10
nColumns=40
inDegrees=yes

Units are S.I. units (second, meters, Newtons, ...)
Angles are in degrees.

endheader
time	pelvis_tilt	pelvis_list	pelvis_rotation	pelvis_tx	pelvis_ty	pelvis_tz	hip_flexion_r	hip_adduction_r	hip_rotation_r	knee_angle_r	knee_angle_r_beta	ankle_angle_r	subtalar_angle_r	mtp_angle_r	hip_flexion_l	hip_adduction_l	hip_rotation_l	knee_angle_l	knee_angle_l_beta	ankle_angle_l	subtalar_angle_l	mtp_angle_l	lumbar_extension	lumbar_bending	lumbar_rotation	arm_flex_r	arm_add_r	arm_rot_r	elbow_flex_r	pro_sup_r	wrist_flex_r	wrist_dev_r	arm_flex_l	arm_add_l	arm_rot_l	elbow_flex_l	pro_sup_l	wrist_flex_l	wrist_dev_l
     36.16250000	     -5.38570598	     -4.34017870	      9.58399274	      0.99818503	      0.92625539	      0.49866350	      0.91735048	      2.40720691	    -17.23629577	     13.71455603	     13.71455603	     16.11871367	      1.20710142	     -2.98969688	     24.82453395	     -7.08368259	     -0.07540300	     21.25030479	     21.25030479	      5.57393817	     -9.24228513	      1.53711333	     -6.46227720	      4.88957912	      4.07667046	     50.31534119	    -16.95859525	      1.17497279	     86.61497229	     44.52861964	      0.00000000	      0.00000000	    -12.34941303	    -13.65352823	     24.50228865	     34.47105607	     42.42912470	      0.00000000	      0.00000000
     36.18371429	     -5.61692106	     -4.30463153	      8.93651364	      0.99831851	      0.92695731	      0.49385655	      0.92716235	      1.90373483	    -16.90903184	     13.87398296	     13.87398296	     15.81269860	      1.65980507	     -2.98703081	     24.51506759	     -6.91441566	     -0.61005298	     21.18391263	     21.18391263	      5.98880419	     -9.37088756	      1.71103829	     -6.44648146	      4.92913387	      4.32359217	     49.00444922	    -17.04856572	      1.10071213	     84.94461474	     44.59124377	      0.00000000	      0.00000000	    -11.38268059	    -13.68931693	     24.26391877	     34.74218236	     42.52095140	      0.00000000	      0.00000000
     36.20492857	     -5.81952646	     -4.26467493	      8.25790878	      0.99860401	      0.92775841	      0.48887350	      0.97978240	      1.34724690	    -16.68421802	     14.18791664	     14.18791664	     15.61582481	      2.20828344	     -3.04286168	     24.11921978	     -6.73869647	     -1.26963447	     21.03710609	     21.03710609	      6.33580150	     -9.56724201	      1.91537409	     -6.41319127	      5.02607858	      4.34230716	     47.49501843	    -16.71538523	      0.91745097	     82.94014708	     44.66683462	      0.00000000	      0.00000000	    -10.33902661	    -13.65889203	     24.08543733	     34.78023988	     42.60702065	      0.00000000	      0.00000000
     36.22614286	     -5.99673599	     -4.21528046	      7.53546440	      0.99898975	      0.92863632	      0.48375492	      1.13197357	      0.72197714	    -16.46142962	     14.73054002	     14.73054002	     15.40830118	      2.78854136	     -3.12586056	     23.64502398	     -6.54777631	     -1.91929900	     20.81023490	     20.81023490	      6.63788287	     -9.77055324	      2.15951742	     -6.38958708	      5.12346135	      4.34359664	     45.87593183	    -16.29066368	      0.63698075	     80.44181122	     44.76159113	      0.00000000	      0.00000000	     -9.11116418	    -13.55404307	     23.91655785	     34.64593954	     42.69941646	      0.00000000	      0.00000000
     36.24735714	     -6.15929981	     -4.12824329	      6.79868219	      0.99955217	      0.92952035	      0.47849253	      1.35712603	      0.03132143	    -16.10583252	     15.42890697	     15.42890697	     15.16691906	      3.20670260	     -3.23764913	     23.13290554	     -6.29934872	     -2.56033112	     20.56939662	     20.56939662	      6.90205221	    -10.00426483	      2.33819189	     -6.37746250	      5.19410416	      4.26824953	     43.80366752	    -15.93984139	      0.56066995	     78.12719983	     44.83787845	      0.00000000	      0.00000000	     -7.90118484	    -13.49653647	     23.77507476	     34.54181234	     42.76998970	      0.00000000	      0.00000000
     36.26857143	     -6.24614382	     -4.06585360	      6.03707305	      1.00016065	      0.93037244	      0.47304422	      1.69891806	     -0.72516703	    -15.84533719	     16.48822732	     16.48822732	     14.96379418	      3.77209640	     -3.59313136	     22.60356869	     -6.03675285	     -3.03853283	     20.44858054	     20.44858054	      7.28653499	    -10.48802157	      2.91508072	     -6.33945066	      5.37941986	      3.86429375	     42.32659216	    -14.74658367	      0.01268636	     73.59563041	     45.01828194	      0.00000000	      0.00000000	     -6.33044182	    -13.11110196	     23.65998708	     33.25218791	     42.93811073	      0.00000000	      0.00000000
     36.28978571	     -6.30296765	     -3.95688234	      5.22649266	      1.00087406	      0.93103422	      0.46756275	      2.24601081	     -1.55879253	    -15.26988178	     17.95518727	     17.95518727	     14.76812809	      3.85268339	     -4.06829497	     22.05430877	     -5.75587561	     -3.67112387	     20.36104428	     20.36104428	      7.58356518	    -10.87203065	      3.07587754	     -6.42008725	      5.52037261	      4.02448077	     39.82668910	    -14.75601102	      0.13408529	     71.04199875	     45.09305622	      0.00000000	      0.00000000	     -4.74459471	    -13.02340335	     23.47410781	     33.36186920	     43.02288367	      0.00000000	      0.00000000
     36.31100000	     -6.31971441	     -3.80242121	      4.38908907	      1.00160519	      0.93143820	      0.46199715	      3.01983866	     -2.51112279	    -14.56852259	     19.88880301	     19.88880301	     14.53645965	      3.80569820	     -4.84358529	     21.55690559	     -5.40540029	     -4.20288646	     20.44628161	     20.44628161	      7.93020772	    -11.43994499	      3.26797986	     -6.50373728	      5.61144231	      4.13036295	     37.28368430	    -14.70669154	      0.20490395	     67.91155474	     45.18800263	      0.00000000	      0.00000000	     -2.98267773	    -12.88832457	     23.40306911	     33.24010058	     43.09043094	      0.00000000	      0.00000000
     36.33221429	     -6.25927015	     -3.71539276	      3.58829016	      1.00238022	      0.93158928	      0.45636730	      3.82405547	     -3.37234348	    -13.74994248	     21.91502261	     21.91502261	     13.78650403	      3.38502925	     -6.88471954	     21.14772691	     -5.06115207	     -4.41008699	     20.81068789	     20.81068789	      8.53102021	    -12.42460371	      4.02539022	     -6.52626998	      5.85381590	      3.79477258	     35.58321977	    -13.83978783	     -0.01837792	     61.96383115	     45.39560646	      0.00000000	      0.00000000	     -0.87104549	    -12.50452292	     23.81745829	     31.55567847	     43.16398285	      0.00000000	      0.00000000
     36.35342857	     -6.16027734	     -3.52023534	      2.73261790	      1.00312916	      0.93125606	      0.45081122	      5.04601984	     -4.42357822	    -12.70299669	     24.78178520	     24.78178520	     13.34290102	      2.81113535	     -8.27660710	     20.77835104	     -4.68596984	     -4.95246791	     21.33638955	     21.33638955	      9.11159756	    -13.04532595	      4.09516234	     -6.74151207	      5.97123272	      3.87967392	     32.73918186	    -13.90884573	      0.21053536	     58.92232203	     45.47859638	      0.00000000	      0.00000000	      1.00230431	    -12.46391177	     23.76823051	     31.79031699	     43.22968400	      0.00000000	      0.00000000
